# This file uses centimeters as units for non-parametric coordinates.

mtllib MSH_env_grass-hanging-c.mtl
g default
v 19.511286 -8.394375 -0.473640
v 16.734423 -11.990710 -3.778646
v 13.360304 -9.881091 -4.383885
v 8.609296 -12.246801 -8.350630
v 5.607137 -9.258849 -10.992118
v 2.112375 -10.157085 -12.884534
v -2.473025 -8.651537 -9.777937
v -6.149985 -11.386753 -9.874707
v -9.592735 -15.202320 -10.739079
v -13.839207 -13.673110 -11.087684
v -17.336090 -12.605540 -10.759892
v 20.599955 -4.907842 1.157839
v 17.479755 -6.418179 -2.106809
v 13.821123 -8.009247 -3.442548
v 9.150469 -4.706407 -5.171187
v 5.821516 -5.825878 -9.201788
v 1.071100 -8.070800 -10.876959
v -3.865297 -7.544937 -8.557249
v -6.175274 -8.015985 -7.753133
v -9.234379 -11.410774 -9.826728
v -14.358428 -8.978513 -7.841138
v -18.740208 -8.934382 -8.086432
v 21.177801 -1.307645 2.255434
v 18.250509 -2.146544 0.290560
v 13.934893 -1.945772 -0.972532
v 10.801668 -3.065385 -3.132345
v 4.787206 -1.886984 -2.238195
v 0.485384 -2.288553 -3.913763
v -3.767014 -3.898533 -5.821814
v -8.200893 -5.791808 -6.121565
v -11.801407 -3.276133 -4.057028
v -17.526512 -5.750183 -6.052878
v -21.101145 -6.478702 -6.545156
v 23.796486 0.264473 7.426724
v 18.533220 0.448292 5.969929
v 14.461946 -0.318796 1.574160
v 10.037691 0.102493 1.591867
v 4.041357 0.255093 1.203791
v -0.000002 -0.000001 -0.000006
v -4.064541 -1.301733 -3.509817
v -8.797188 -0.504839 -1.848869
v -12.414999 -1.038021 -2.511810
v -14.509230 -0.676848 -1.443573
v -19.169863 -1.109110 -1.419335
v 23.625519 0.632737 11.205441
v 19.746168 0.837038 13.325369
v 12.951821 0.884510 12.105071
v 9.051873 0.867550 10.644761
v 6.121538 0.519939 5.342359
v 0.034766 0.698630 3.554607
v -3.483416 1.330274 6.651896
v -8.506845 0.730097 5.865583
v -10.120347 0.595663 4.596566
v -14.198833 0.593914 3.149354
v -18.683298 0.476412 2.667933
v 24.368290 0.696778 17.651836
v 18.582945 0.746283 16.243767
v 12.921519 0.423672 18.284842
v 8.751331 0.394698 15.407314
v 4.504412 0.359943 14.446244
v 1.508973 0.232022 12.465618
v -6.709374 0.643183 12.833336
v -11.004219 0.669636 13.050829
v -12.444150 0.725437 10.105686
v -16.212830 0.710517 8.351271
v -20.577015 0.673197 7.005158
v 20.835320 0.466333 21.204180
v 17.074257 0.566198 20.004456
v 12.226863 0.325834 23.656874
v 8.563562 0.726522 20.455009
v 3.199803 0.452559 21.517576
v -1.053855 0.516476 22.777300
v -4.940209 0.375984 19.518387
v -9.671865 0.649558 19.978836
v -12.874319 0.766102 17.741446
v -14.525483 0.785996 13.396414
v -18.178757 0.768838 11.090031
v 20.136486 0.616713 24.206039
v 16.481815 0.340626 28.544981
v 12.424740 0.274297 30.289173
v 7.115720 -0.042459 29.961840
v 2.079041 -0.059543 31.338673
v -1.718169 0.233538 29.390509
v -5.604583 0.374513 23.728144
v -9.843328 0.829948 25.342026
v -13.998555 0.842536 21.892544
v -18.320074 0.814110 22.107410
v -21.183561 0.849432 14.768851
vt 0.000000 0.000000
vt 0.100000 0.000000
vt 0.200000 0.000000
vt 0.300000 0.000000
vt 0.400000 0.000000
vt 0.500000 0.000000
vt 0.600000 0.000000
vt 0.700000 0.000000
vt 0.800000 0.000000
vt 0.900000 0.000000
vt 1.000000 0.000000
vt 0.000000 0.100000
vt 0.100000 0.100000
vt 0.200000 0.100000
vt 0.300000 0.100000
vt 0.400000 0.100000
vt 0.500000 0.100000
vt 0.600000 0.100000
vt 0.700000 0.100000
vt 0.800000 0.100000
vt 0.900000 0.100000
vt 1.000000 0.100000
vt 0.000000 0.200000
vt 0.100000 0.200000
vt 0.200000 0.200000
vt 0.300000 0.200000
vt 0.400000 0.200000
vt 0.500000 0.200000
vt 0.600000 0.200000
vt 0.700000 0.200000
vt 0.800000 0.200000
vt 0.900000 0.200000
vt 1.000000 0.200000
vt 0.000000 0.300000
vt 0.100000 0.300000
vt 0.200000 0.300000
vt 0.300000 0.300000
vt 0.400000 0.300000
vt 0.500000 0.300000
vt 0.600000 0.300000
vt 0.700000 0.300000
vt 0.800000 0.300000
vt 0.900000 0.300000
vt 1.000000 0.300000
vt 0.000000 0.400000
vt 0.100000 0.400000
vt 0.200000 0.400000
vt 0.300000 0.400000
vt 0.400000 0.400000
vt 0.500000 0.400000
vt 0.600000 0.400000
vt 0.700000 0.400000
vt 0.800000 0.400000
vt 0.900000 0.400000
vt 1.000000 0.400000
vt 0.000000 0.500000
vt 0.100000 0.500000
vt 0.200000 0.500000
vt 0.300000 0.500000
vt 0.400000 0.500000
vt 0.500000 0.500000
vt 0.600000 0.500000
vt 0.700000 0.500000
vt 0.800000 0.500000
vt 0.900000 0.500000
vt 1.000000 0.500000
vt 0.000000 0.600000
vt 0.100000 0.600000
vt 0.200000 0.600000
vt 0.300000 0.600000
vt 0.400000 0.600000
vt 0.500000 0.600000
vt 0.600000 0.600000
vt 0.700000 0.600000
vt 0.800000 0.600000
vt 0.900000 0.600000
vt 1.000000 0.600000
vt 0.000000 0.700000
vt 0.100000 0.700000
vt 0.200000 0.700000
vt 0.300000 0.700000
vt 0.400000 0.700000
vt 0.500000 0.700000
vt 0.600000 0.700000
vt 0.700000 0.700000
vt 0.800000 0.700000
vt 0.900000 0.700000
vt 1.000000 0.700000
vn 0.690461 0.120313 -0.713294
vn 0.426450 0.231525 -0.874378
vn 0.422652 0.293075 -0.857597
vn 0.609527 0.213581 -0.763453
vn 0.451641 0.294033 -0.842357
vn 0.399657 0.325131 -0.857067
vn 0.650413 0.264344 -0.712099
vn 0.435367 0.569197 -0.697474
vn 0.544128 0.386718 -0.744562
vn 0.311337 0.664051 -0.679784
vn 0.038920 0.577231 -0.815653
vn -0.064917 0.709194 -0.702019
vn -0.338302 0.517287 -0.786108
vn -0.202065 0.626163 -0.753054
vn -0.107825 0.421205 -0.900534
vn -0.169687 0.526170 -0.833278
vn 0.019882 0.430403 -0.902418
vn -0.006129 0.475722 -0.879574
vn 0.045802 0.495177 -0.867584
vn 0.019443 0.545261 -0.838041
vn 0.074444 0.587389 -0.805874
vn 0.051464 0.555308 -0.830051
vn 0.330989 0.631966 -0.700761
vn 0.201847 0.843602 -0.497587
vn 0.241057 0.651536 -0.719300
vn 0.282060 0.680023 -0.676765
vn 0.066848 0.838620 -0.540600
vn 0.004716 0.801160 -0.598432
vn -0.120260 0.679200 -0.724033
vn -0.117213 0.575929 -0.809053
vn -0.024165 0.598599 -0.800684
vn -0.024014 0.617151 -0.786478
vn -0.025733 0.640768 -0.767303
vn 0.026222 0.985446 -0.167953
vn 0.051098 0.985593 -0.161228
vn 0.099040 0.960134 -0.261408
vn 0.061264 0.961336 -0.268477
vn 0.058707 0.945323 -0.320809
vn 0.012414 0.942473 -0.334053
vn -0.038623 0.869820 -0.491855
vn -0.041902 0.917012 -0.396652
vn -0.022396 0.821408 -0.569901
vn -0.023697 0.865233 -0.500810
vn -0.053081 0.808922 -0.585515
vn 0.003938 0.999602 -0.027919
vn 0.033678 0.998352 -0.046475
vn -0.003840 0.999569 -0.029122
vn -0.010220 0.999779 -0.018353
vn 0.004378 0.999506 -0.031119
vn 0.006807 0.997394 -0.071825
vn 0.038555 0.998859 -0.028167
vn -0.026644 0.994324 -0.103007
vn -0.012697 0.993272 -0.115108
vn 0.010089 0.988463 -0.151129
vn -0.024885 0.986017 -0.164779
vn -0.007070 0.999109 0.041610
vn 0.015058 0.999525 0.026881
vn -0.005893 0.999610 0.027304
vn -0.037579 0.999125 0.018385
vn -0.030006 0.999550 -0.000049
vn 0.028641 0.999134 0.030181
vn 0.018600 0.999429 0.028209
vn 0.006265 0.999931 0.009957
vn 0.004957 0.999900 -0.013274
vn 0.000865 0.999704 -0.024305
vn -0.006925 0.999442 -0.032685
vn -0.025382 0.999377 0.024508
vn -0.009605 0.999404 0.033169
vn -0.010285 0.999548 0.028263
vn 0.000582 0.999898 0.014263
vn -0.005095 0.999744 0.022058
vn 0.011066 0.999767 0.018524
vn 0.026190 0.999650 0.003644
vn 0.046178 0.998921 -0.004977
vn 0.020039 0.999757 -0.009203
vn 0.008844 0.999931 -0.007692
vn 0.006193 0.999930 -0.010057
vn -0.023469 0.999605 0.015478
vn -0.022044 0.999749 0.004047
vn -0.015930 0.999208 0.036459
vn -0.011906 0.998176 0.059194
vn 0.008756 0.998184 0.059597
vn 0.026174 0.998574 0.046534
vn 0.019191 0.999785 0.007888
vn 0.060190 0.998056 -0.016143
vn 0.017709 0.999746 -0.013909
vn 0.006090 0.999967 -0.005386
vn 0.008703 0.999954 -0.003997
s 1
g MSH_env_grass_hanging_c group4
usemtl initialShadingGroup
f 1/1/1 2/2/2 13/13/3 12/12/4
f 2/2/2 3/3/5 14/14/6 13/13/3
f 3/3/5 4/4/7 15/15/8 14/14/6
f 4/4/7 5/5/9 16/16/10 15/15/8
f 5/5/9 6/6/11 17/17/12 16/16/10
f 6/6/11 7/7/13 18/18/14 17/17/12
f 7/7/13 8/8/15 19/19/16 18/18/14
f 8/8/15 9/9/17 20/20/18 19/19/16
f 9/9/17 10/10/19 21/21/20 20/20/18
f 10/10/19 11/11/21 22/22/22 21/21/20
f 12/12/4 13/13/3 24/24/23 23/23/24
f 13/13/3 14/14/6 25/25/25 24/24/23
f 14/14/6 15/15/8 26/26/26 25/25/25
f 15/15/8 16/16/10 27/27/27 26/26/26
f 16/16/10 17/17/12 28/28/28 27/27/27
f 17/17/12 18/18/14 29/29/29 28/28/28
f 18/18/14 19/19/16 30/30/30 29/29/29
f 19/19/16 20/20/18 31/31/31 30/30/30
f 20/20/18 21/21/20 32/32/32 31/31/31
f 21/21/20 22/22/22 33/33/33 32/32/32
f 23/23/24 24/24/23 35/35/34 34/34/35
f 24/24/23 25/25/25 36/36/36 35/35/34
f 25/25/25 26/26/26 37/37/37 36/36/36
f 26/26/26 27/27/27 38/38/38 37/37/37
f 27/27/27 28/28/28 39/39/39 38/38/38
f 28/28/28 29/29/29 40/40/40 39/39/39
f 29/29/29 30/30/30 41/41/41 40/40/40
f 30/30/30 31/31/31 42/42/42 41/41/41
f 31/31/31 32/32/32 43/43/43 42/42/42
f 32/32/32 33/33/33 44/44/44 43/43/43
f 34/34/35 35/35/34 46/46/45 45/45/46
f 35/35/34 36/36/36 47/47/47 46/46/45
f 36/36/36 37/37/37 48/48/48 47/47/47
f 37/37/37 38/38/38 49/49/49 48/48/48
f 38/38/38 39/39/39 50/50/50 49/49/49
f 39/39/39 40/40/40 51/51/51 50/50/50
f 40/40/40 41/41/41 52/52/52 51/51/51
f 41/41/41 42/42/42 53/53/53 52/52/52
f 42/42/42 43/43/43 54/54/54 53/53/53
f 43/43/43 44/44/44 55/55/55 54/54/54
f 45/45/46 46/46/45 57/57/56 56/56/57
f 46/46/45 47/47/47 58/58/58 57/57/56
f 47/47/47 48/48/48 59/59/59 58/58/58
f 48/48/48 49/49/49 60/60/60 59/59/59
f 49/49/49 50/50/50 61/61/61 60/60/60
f 50/50/50 51/51/51 62/62/62 61/61/61
f 51/51/51 52/52/52 63/63/63 62/62/62
f 52/52/52 53/53/53 64/64/64 63/63/63
f 53/53/53 54/54/54 65/65/65 64/64/64
f 54/54/54 55/55/55 66/66/66 65/65/65
f 56/56/57 57/57/56 68/68/67 67/67/68
f 57/57/56 58/58/58 69/69/69 68/68/67
f 58/58/58 59/59/59 70/70/70 69/69/69
f 59/59/59 60/60/60 71/71/71 70/70/70
f 60/60/60 61/61/61 72/72/72 71/71/71
f 61/61/61 62/62/62 73/73/73 72/72/72
f 62/62/62 63/63/63 74/74/74 73/73/73
f 63/63/63 64/64/64 75/75/75 74/74/74
f 64/64/64 65/65/65 76/76/76 75/75/75
f 65/65/65 66/66/66 77/77/77 76/76/76
f 67/67/68 68/68/67 79/79/78 78/78/79
f 68/68/67 69/69/69 80/80/80 79/79/78
f 69/69/69 70/70/70 81/81/81 80/80/80
f 70/70/70 71/71/71 82/82/82 81/81/81
f 71/71/71 72/72/72 83/83/83 82/82/82
f 72/72/72 73/73/73 84/84/84 83/83/83
f 73/73/73 74/74/74 85/85/85 84/84/84
f 74/74/74 75/75/75 86/86/86 85/85/85
f 75/75/75 76/76/76 87/87/87 86/86/86
f 76/76/76 77/77/77 88/88/88 87/87/87
