# This file uses centimeters as units for non-parametric coordinates.

mtllib compass_arrow.mtl
g default
v 4.234694 8.010897 0.000000
v 4.234694 7.410326 0.000000
v 4.122890 8.010897 -0.429509
v 4.122890 7.410326 -0.429509
v -0.244349 7.410326 -0.732072
v -0.239267 7.410326 0.000000
v -0.239266 8.010897 0.000000
v -0.244348 8.010897 -0.732072
v 4.230794 7.410326 -1.162861
v 5.426908 7.410326 0.000000
v 5.426908 8.010897 0.000000
v 4.231305 8.010897 -1.160369
v 4.122890 8.010897 0.429582
v 4.122890 7.410326 0.429582
v -0.244349 7.410326 0.732196
v -0.244348 8.010897 0.732196
v 4.230794 7.410326 1.163059
v 4.231305 8.010897 1.160566
v -0.362804 7.436534 -0.838019
v -0.348784 7.417351 -0.824676
v -0.331521 7.410326 -0.804918
v -0.236211 7.410326 -0.884903
v -0.243443 7.416996 -0.911780
v -0.246832 7.435456 -0.932807
v 4.012404 7.439600 -0.559878
v 4.028713 7.418152 -0.541540
v 4.053552 7.410326 -0.512883
v 4.095739 7.410326 -1.175545
v 4.071312 7.418261 -1.194039
v 4.056221 7.439586 -1.207231
v -0.471554 7.431598 -0.000000
v -0.449852 7.415883 -0.000000
v -0.423640 7.410326 0.000000
v -0.473002 7.433199 -0.747029
v -0.450250 7.416386 -0.741735
v -0.423827 7.410326 -0.728023
v 4.173074 7.438971 -1.254181
v 4.176821 7.418126 -1.236605
v 4.185692 7.410326 -1.211923
v 4.301085 7.438843 -1.307600
v 4.296734 7.418002 -1.286909
v 4.290934 7.410326 -1.255857
v 5.632562 7.410326 0.000002
v 5.671060 7.417615 0.000001
v 5.697723 7.437954 0.000000
v -0.331465 7.410326 0.804994
v -0.348760 7.417331 0.824793
v -0.362770 7.436459 0.838134
v -0.235892 7.410326 0.883385
v -0.243360 7.417003 0.911498
v -0.246833 7.435486 0.932986
v 4.053552 7.410326 0.512977
v 4.028713 7.418152 0.541634
v 4.012405 7.439599 0.559973
v 4.097054 7.410326 1.174801
v 4.071668 7.418258 1.193987
v 4.056222 7.439585 1.207436
v -0.472695 7.432860 0.747148
v -0.450169 7.416296 0.741861
v -0.423827 7.410326 0.728152
v 4.185694 7.410326 1.212135
v 4.176821 7.418126 1.236817
v 4.173074 7.438969 1.254393
v 4.301085 7.438842 1.307822
v 4.296761 7.418003 1.287278
v 4.291033 7.410326 1.256631
v -0.331108 8.010897 -0.804411
v -0.348725 8.003760 -0.824581
v -0.362997 7.984273 -0.838172
v -0.235828 8.010897 -0.882544
v -0.243349 8.004092 -0.911251
v -0.246857 7.985254 -0.933168
v -0.423294 8.010897 -0.727677
v -0.450212 8.004723 -0.741646
v -0.473389 7.987595 -0.747039
v 4.078110 8.010897 -0.475905
v 4.052186 8.003462 -0.505293
v 4.034417 7.982728 -0.525726
v 4.098661 8.010897 -1.174375
v 4.072047 8.002790 -1.193782
v 4.056014 7.980999 -1.207450
v 4.185698 8.010897 -1.211127
v 4.176819 8.002990 -1.236440
v 4.173065 7.981856 -1.254365
v 4.301593 7.982001 -1.305542
v 4.297164 8.003124 -1.284595
v 4.291142 8.010897 -1.253578
v -0.423103 8.010897 0.000000
v -0.449806 8.005236 -0.000000
v -0.471915 7.989226 -0.000000
v 5.698104 7.982743 0.000000
v 5.670926 8.003469 0.000001
v 5.631674 8.010897 0.000002
v -0.331174 8.010897 0.804637
v -0.348750 8.003745 0.824751
v -0.363023 7.984216 0.838335
v -0.236141 8.010897 0.884397
v -0.243431 8.004100 0.911850
v -0.246855 7.985288 0.933303
v -0.423294 8.010897 0.727806
v -0.450129 8.004815 0.741772
v -0.473077 7.987940 0.747158
v 4.034417 7.982729 0.525815
v 4.052186 8.003462 0.505381
v 4.078110 8.010897 0.475992
v 4.097094 8.010897 1.175667
v 4.071625 8.002788 1.194280
v 4.056014 7.980999 1.207655
v 4.173065 7.981857 1.254578
v 4.176819 8.002991 1.236651
v 4.185699 8.010897 1.211339
v 4.301593 7.982002 1.305764
v 4.297143 8.003124 1.284706
v 4.291066 8.010897 1.253390
v -0.477481 7.683963 -0.928986
v -0.483194 7.710611 -0.933517
v -0.477481 7.737260 -0.928986
v -0.258831 7.683963 -1.108008
v -0.259410 7.710611 -1.116454
v -0.258831 7.737260 -1.108008
v 3.917363 7.683513 -0.663261
v 3.913007 7.710357 -0.667733
v 3.919073 7.736773 -0.660419
v 3.976391 7.683963 -1.291163
v 3.972258 7.710611 -1.295508
v 3.976391 7.737260 -1.291163
v -0.699749 7.683963 -0.000000
v -0.710010 7.710611 -0.000000
v -0.699748 7.737260 -0.000000
v -0.699748 7.683963 -0.753047
v -0.710009 7.710611 -0.753320
v -0.699748 7.737260 -0.753047
v 4.167246 7.683963 -1.368152
v 4.166945 7.710611 -1.374047
v 4.167246 7.737260 -1.368152
v 4.331206 7.683938 -1.433508
v 4.332757 7.710598 -1.439881
v 4.331258 7.737235 -1.433313
v 5.876262 7.683963 0.000000
v 5.884913 7.710611 0.000000
v 5.876262 7.737260 0.000000
v -0.477481 7.683963 0.929144
v -0.483194 7.710611 0.933676
v -0.477481 7.737260 0.929143
v -0.258831 7.683963 1.108196
v -0.259410 7.710611 1.116643
v -0.258831 7.737260 1.108196
v 3.917357 7.683527 0.663380
v 3.913003 7.710357 0.667850
v 3.919066 7.736759 0.660539
v 3.976391 7.683963 1.291383
v 3.972258 7.710611 1.295728
v 3.976391 7.737260 1.291383
v -0.699748 7.683963 0.753175
v -0.710009 7.710611 0.753448
v -0.699748 7.737260 0.753175
v 4.167249 7.683839 1.368327
v 4.166944 7.710546 1.374280
v 4.167243 7.737136 1.368443
v 4.331206 7.683938 1.433752
v 4.332757 7.710598 1.440126
v 4.331258 7.737235 1.433557
vt 0.611487 0.375000
vt 0.611487 0.875000
vt 0.611487 0.375000
vt 0.611487 0.875000
vt 0.614032 0.991650
vt 0.624578 0.875000
vt 0.614032 0.991649
vt 0.615718 0.974309
vt 0.615079 0.975000
vt 0.611491 0.992522
vt 0.377297 0.993777
vt 0.386236 0.995985
vt 0.385750 0.975000
vt 0.376473 0.972792
vt 0.385750 0.875000
vt 0.611487 0.975000
vt 0.613501 0.995312
vt 0.615719 0.974319
vt 0.622652 0.875000
vt 0.613515 0.995107
vt 0.386247 0.995761
vt 0.611487 0.975000
vt 0.376473 0.972793
vt 0.376447 0.875000
vt 0.385750 0.975000
vt 0.615079 0.975000
vt 0.611491 0.992522
vt 0.377303 0.993761
vt 0.375000 1.000000
vt 0.375000 0.000000
vt 0.385750 0.000000
vt 0.385750 1.000000
vt 0.611487 1.000000
vt 0.611487 0.000000
vt 0.613185 0.000000
vt 0.613185 1.000000
vt 0.250000 0.000000
vt 0.375000 0.875000
vt 0.375000 0.875000
vt 0.250000 0.000000
vt 0.375000 0.975000
vt 0.350000 0.000000
vt 0.613543 0.000000
vt 0.613543 1.000000
vt 0.615834 0.975000
vt 0.640834 0.000000
vt 0.750000 0.000000
vt 0.625000 0.875000
vt 0.625000 0.875000
vt 0.750000 0.000000
vt 0.375000 0.000000
vt 0.375000 1.000000
vt 0.385750 1.000000
vt 0.385750 0.000000
vt 0.611487 1.000000
vt 0.611487 0.000000
vt 0.613185 1.000000
vt 0.613185 0.000000
vt 0.375000 0.975000
vt 0.350000 0.000000
vt 0.613543 0.000000
vt 0.613543 1.000000
vt 0.615834 0.975000
vt 0.640834 0.000000
vt 0.614030 0.258326
vt 0.622652 0.375000
vt 0.615716 0.275669
vt 0.611487 0.275000
vt 0.386253 0.254322
vt 0.613528 0.255028
vt 0.376474 0.375000
vt 0.385750 0.275000
vt 0.376500 0.277249
vt 0.611424 0.260682
vt 0.615079 0.275000
vt 0.624569 0.375000
vt 0.611401 0.260677
vt 0.615714 0.275676
vt 0.615079 0.275000
vt 0.614030 0.258325
vt 0.376500 0.277249
vt 0.385750 0.375000
vt 0.386237 0.254094
vt 0.385750 0.275000
vt 0.613512 0.254788
vt 0.611487 0.275000
vt 0.377347 0.256357
vt 0.377338 0.256334
vt 0.375000 0.250000
vt 0.385750 0.250000
vt 0.350000 0.250000
vt 0.375000 0.275000
vt 0.611487 0.250000
vt 0.613185 0.250000
vt 0.613543 0.250000
vt 0.615834 0.275000
vt 0.640834 0.250000
vt 0.250000 0.250000
vt 0.375000 0.375000
vt 0.375000 0.375000
vt 0.250000 0.250000
vt 0.625000 0.375000
vt 0.750000 0.250000
vt 0.750000 0.250000
vt 0.625000 0.375000
vt 0.375000 0.250000
vt 0.385750 0.250000
vt 0.350000 0.250000
vt 0.375000 0.275000
vt 0.611487 0.250000
vt 0.613185 0.250000
vt 0.613543 0.250000
vt 0.615834 0.275000
vt 0.640834 0.250000
vt 0.613543 0.113907
vt 0.613185 0.012180
vt 0.611487 0.113720
vt 0.385750 0.010461
vt 0.350000 0.113907
vt 0.250000 0.008855
vt 0.750000 0.113907
vt 0.640834 0.011871
vt 0.613543 0.011924
vt 0.640834 0.113896
vt 0.375000 0.113907
vt 0.350000 0.009522
vt 0.375000 0.010910
vt 0.385750 0.113907
vt 0.613185 0.113907
vt 0.611487 0.012186
vt 0.613185 0.113907
vt 0.613543 0.011923
vt 0.385753 0.113908
vt 0.611487 0.012186
vt 0.250000 0.113907
vt 0.350000 0.009380
vt 0.640834 0.113897
vt 0.750000 0.011501
vt 0.640834 0.011871
vt 0.613543 0.113855
vt 0.350000 0.113907
vt 0.375000 0.010878
vt 0.385750 0.010473
vt 0.375000 0.113907
vt 0.611487 0.113726
vt 0.613185 0.012180
vt 0.613543 0.237911
vt 0.613185 0.136093
vt 0.611487 0.238274
vt 0.385750 0.136093
vt 0.350000 0.240300
vt 0.250000 0.136093
vt 0.750000 0.238281
vt 0.640834 0.136083
vt 0.613543 0.136093
vt 0.640834 0.237971
vt 0.375000 0.238917
vt 0.350000 0.136093
vt 0.375000 0.136093
vt 0.385750 0.239326
vt 0.613185 0.237554
vt 0.611487 0.135891
vt 0.613185 0.237555
vt 0.613543 0.136042
vt 0.385750 0.239340
vt 0.611487 0.135885
vt 0.250000 0.240979
vt 0.350000 0.136093
vt 0.640834 0.237972
vt 0.750000 0.136093
vt 0.640834 0.136082
vt 0.613543 0.237912
vt 0.350000 0.240444
vt 0.375000 0.136093
vt 0.385750 0.136093
vt 0.375000 0.238894
vt 0.611487 0.238275
vt 0.613185 0.136093
vt 0.375000 0.125000
vt 0.385750 0.125000
vt 0.611487 0.125000
vt 0.613185 0.125000
vt 0.250000 0.125000
vt 0.350000 0.125000
vt 0.613543 0.125000
vt 0.640834 0.125000
vt 0.750000 0.125000
vt 0.375000 0.125000
vt 0.385750 0.125000
vt 0.611487 0.125000
vt 0.613185 0.125000
vt 0.350000 0.125000
vt 0.613543 0.125000
vt 0.640834 0.125000
vn 0.000000 1.000000 0.000000
vn 0.000000 1.000000 0.000000
vn 0.000000 1.000000 -0.000000
vn 0.000000 1.000000 -0.000000
vn 0.000000 -1.000000 -0.000000
vn 0.000000 -1.000000 -0.000000
vn 0.000000 -1.000000 0.000000
vn 0.000000 -1.000000 0.000000
vn 0.000000 -1.000000 -0.000000
vn 0.000000 -1.000000 -0.000001
vn 0.000000 1.000000 -0.000000
vn 0.000000 1.000000 0.000000
vn 0.000000 1.000000 -0.000000
vn 0.000000 1.000000 0.000001
vn 0.000000 -1.000000 0.000001
vn 0.000000 -1.000000 0.000001
vn 0.000000 -1.000000 0.000001
vn 0.000000 1.000000 -0.000001
vn -0.032006 -0.998727 -0.038985
vn -0.156925 -0.968913 -0.191265
vn 0.017994 -0.964548 -0.263293
vn 0.003999 -0.998170 -0.060330
vn -0.442527 -0.713178 -0.543643
vn -0.539801 -0.513198 -0.667265
vn -0.546563 -0.507968 -0.665761
vn -0.452156 -0.706361 -0.544619
vn -0.001367 -0.999854 -0.017015
vn -0.018353 -0.971945 -0.234490
vn -0.264067 -0.962968 -0.054421
vn -0.072488 -0.997266 -0.014366
vn -0.786226 -0.615721 -0.052313
vn -0.912207 -0.403366 -0.071938
vn -0.922864 -0.377975 -0.073867
vn -0.786226 -0.615721 -0.052313
vn 0.045912 -0.997405 -0.055451
vn 0.168385 -0.964608 -0.202923
vn 0.190258 -0.981734 0.000001
vn 0.079744 -0.996815 -0.000009
vn 0.512555 -0.661257 -0.547747
vn 0.610415 -0.445277 -0.655074
vn 0.611732 -0.441310 -0.656528
vn 0.512555 -0.661257 -0.547747
vn -0.341155 -0.420751 0.840584
vn -0.291819 -0.645720 0.705612
vn -0.296763 -0.642226 0.706737
vn -0.343968 -0.412061 0.843736
vn -0.109629 -0.959119 0.260908
vn -0.035481 -0.995793 0.084481
vn 0.045973 -0.997398 0.055524
vn 0.169428 -0.964176 0.204105
vn -0.035176 -0.995759 -0.085015
vn -0.036370 -0.999327 -0.004769
vn -0.027919 -0.999610 -0.000003
vn -0.072130 -0.997294 0.014251
vn 0.003995 -0.998178 0.060201
vn -0.001381 -0.999853 0.017117
vn -0.036115 -0.999336 0.004728
vn -0.031812 -0.998729 0.039088
vn -0.431036 -0.721127 -0.542387
vn -0.536197 -0.508027 -0.674093
vn -0.439324 -0.898237 -0.012845
vn 0.063668 -0.684736 -0.726005
vn 0.083595 -0.493569 -0.865680
vn 0.082151 -0.510149 -0.856154
vn 0.063668 -0.684736 -0.726005
vn -0.731474 -0.681870 -0.000003
vn -0.414237 -0.910169 -0.000033
vn -0.437933 -0.898917 0.012754
vn -0.732774 -0.680472 0.000022
vn -0.732767 -0.680480 -0.000027
vn -0.108834 -0.958689 -0.262812
vn -0.287252 -0.644994 -0.708145
vn -0.340448 -0.416308 -0.843080
vn -0.341081 -0.420602 -0.840689
vn -0.291495 -0.644336 -0.707009
vn -0.343895 -0.412097 -0.843749
vn -0.295935 -0.643634 -0.705803
vn -0.539751 -0.513384 0.667163
vn -0.440162 -0.716038 0.541800
vn -0.448772 -0.710528 0.541991
vn -0.546507 -0.508188 0.665639
vn -0.153759 -0.969853 0.189060
vn 0.017643 -0.966022 0.257856
vn 0.083581 -0.494056 0.865403
vn 0.063304 -0.688893 0.722094
vn 0.063304 -0.688893 0.722094
vn 0.082107 -0.511092 0.855595
vn -0.017968 -0.973097 0.229696
vn -0.911804 -0.404277 0.071929
vn -0.782834 -0.620029 0.052303
vn -0.782834 -0.620029 0.052303
vn -0.922739 -0.378283 0.073860
vn -0.259439 -0.964278 0.053483
vn -0.536222 -0.508089 0.674026
vn -0.429779 -0.722545 0.541497
vn -0.340506 -0.416588 0.842918
vn -0.287121 -0.649009 0.704520
vn 0.513393 -0.659982 0.548499
vn 0.611805 -0.441263 0.656492
vn 0.610493 -0.445216 0.655043
vn 0.513393 -0.659982 0.548499
vn -0.337447 0.423081 -0.840912
vn -0.285295 0.648525 -0.705707
vn -0.283329 0.646818 -0.708062
vn -0.336092 0.416967 -0.844500
vn -0.106622 0.959679 -0.260092
vn -0.034835 0.995781 -0.084893
vn 0.046553 0.997333 -0.056216
vn 0.169071 0.964315 -0.203743
vn -0.001468 0.999830 0.018408
vn 0.004328 0.932795 0.360380
vn -0.259825 0.964656 0.043927
vn -0.083330 0.996432 0.013400
vn -0.776842 0.629225 0.024359
vn -0.899297 0.434417 0.050478
vn -0.912322 0.405919 0.053846
vn -0.776841 0.629225 0.024359
vn 0.080620 0.996745 0.000003
vn -0.001486 0.999827 -0.018552
vn 0.004932 0.997722 -0.067283
vn -0.082857 0.996473 -0.013272
vn -0.036990 0.999304 -0.004843
vn -0.028444 0.999595 -0.000003
vn -0.032581 0.998669 -0.039984
vn 0.046519 0.997338 0.056153
vn 0.004936 0.997714 0.067395
vn -0.034302 0.995797 0.084928
vn -0.036726 0.999314 0.004807
vn -0.032507 0.998685 0.039631
vn -0.154273 0.969691 -0.189472
vn -0.439319 0.898240 -0.012826
vn -0.440569 0.715552 -0.542111
vn -0.539615 0.513626 -0.667086
vn -0.536138 0.508175 -0.674028
vn -0.430718 0.721566 -0.542055
vn -0.448786 0.710435 -0.542101
vn -0.546405 0.508313 -0.665626
vn 0.048153 0.847739 -0.528224
vn -0.414258 0.910160 -0.000034
vn -0.732595 0.680665 -0.000027
vn -0.731278 0.682080 -0.000003
vn 0.085185 0.529242 -0.844184
vn 0.004264 0.935140 -0.354252
vn 0.083674 0.547177 -0.832824
vn -0.898751 0.435541 -0.050501
vn -0.772917 0.634034 -0.024496
vn -0.772917 0.634034 -0.024496
vn -0.912168 0.406260 -0.053866
vn -0.254575 0.966093 -0.043070
vn -0.340453 0.416734 -0.842867
vn -0.287160 0.650140 -0.703461
vn 0.609537 0.447123 -0.654634
vn 0.512213 0.661217 -0.548114
vn 0.512213 0.661217 -0.548115
vn 0.610868 0.443143 -0.656098
vn 0.189749 0.981833 -0.000005
vn -0.438001 0.898884 0.012769
vn -0.732602 0.680657 0.000022
vn 0.610893 0.443234 0.656013
vn 0.511661 0.662182 0.547466
vn 0.511661 0.662182 0.547466
vn 0.609559 0.447221 0.654547
vn 0.168350 0.964630 0.202849
vn -0.156416 0.969077 0.190853
vn 0.048750 0.843740 0.534534
vn -0.442114 0.713594 0.543433
vn -0.539741 0.513453 0.667118
vn -0.546547 0.508160 0.665627
vn -0.452198 0.706357 0.544590
vn -0.430013 0.722070 0.541945
vn -0.536164 0.508227 0.673969
vn 0.085223 0.528896 0.844397
vn 0.083748 0.546354 0.833357
vn -0.106014 0.959067 0.262588
vn -0.287348 0.645620 0.707535
vn -0.340474 0.416521 0.842964
vn -0.337461 0.422978 0.840958
vn -0.285120 0.646730 0.707423
vn -0.336109 0.417076 0.844440
vn -0.282790 0.647886 0.707300
vn -0.346513 -0.378323 -0.858371
vn -0.347196 -0.380038 -0.857336
vn 0.087111 -0.453591 -0.886943
vn 0.086427 -0.461234 -0.883059
vn -0.760316 -0.649553 -0.000000
vn -0.760619 -0.649198 -0.000000
vn 0.624347 -0.400596 -0.670607
vn 0.622683 -0.406269 -0.668739
vn -0.348765 -0.373621 -0.859517
vn -0.553674 -0.456458 -0.696485
vn -0.552934 -0.474107 -0.685191
vn -0.561684 -0.464316 -0.684779
vn -0.934159 -0.348584 -0.076399
vn -0.937454 -0.339412 -0.077323
vn -0.346546 -0.378409 0.858320
vn -0.347230 -0.380149 0.857274
vn 0.087123 -0.453647 0.886913
vn 0.086439 -0.461289 0.883029
vn -0.760608 -0.649212 0.000000
vn 0.624395 -0.400627 0.670544
vn 0.622731 -0.406297 0.668677
vn -0.348807 -0.373705 0.859464
vn -0.553715 -0.456520 0.696412
vn -0.552975 -0.474154 0.685125
vn -0.561729 -0.464351 0.684718
vn -0.934157 -0.348590 0.076386
vn -0.937452 -0.339420 0.077310
vn -0.343628 0.382378 -0.857734
vn -0.346517 0.378289 -0.858384
vn 0.087632 0.499671 -0.861771
vn 0.088308 0.491510 -0.866383
vn -0.760647 0.649166 0.000000
vn -0.760343 0.649522 0.000000
vn 0.623607 0.402363 -0.670237
vn 0.621979 0.407865 -0.668422
vn -0.342172 0.378086 -0.860215
vn -0.552941 0.474079 -0.685205
vn -0.553686 0.456416 -0.696503
vn -0.561695 0.464277 -0.684796
vn -0.927066 0.370111 -0.059726
vn -0.923273 0.379770 -0.057802
vn -0.346571 0.378299 0.858358
vn -0.343679 0.382364 0.857719
vn 0.088319 0.491583 0.866340
vn 0.087642 0.499743 0.861729
vn -0.760635 0.649180 0.000000
vn 0.622028 0.407893 0.668360
vn 0.623656 0.402394 0.670174
vn -0.342212 0.378099 0.860193
vn -0.553727 0.456472 0.696434
vn -0.552983 0.474122 0.685141
vn -0.561741 0.464309 0.684737
vn -0.923271 0.379776 0.057792
vn -0.927063 0.370119 0.059716
vn -0.627075 -0.000000 -0.778959
vn -0.633205 -0.000001 -0.773984
vn 0.106539 0.024815 -0.993999
vn 0.106528 0.029806 -0.993863
vn -0.995391 0.023609 -0.092945
vn -0.995495 0.018573 -0.092978
vn -0.374112 -0.000002 -0.927384
vn -0.371829 0.000924 -0.928301
vn -0.933208 -0.359336 0.000000
vn -0.933208 -0.359336 -0.000001
vn -0.933208 0.359337 -0.000000
vn -0.933208 0.359336 -0.000001
vn -0.621362 -0.000000 -0.783523
vn -0.369380 0.001839 -0.929277
vn 0.680108 0.000546 -0.733112
vn 0.680108 0.001013 -0.733111
vn 0.680167 0.001013 0.733057
vn 0.680167 0.000547 0.733057
vn -0.627139 0.000000 0.778907
vn -0.621427 0.000000 0.783472
vn -0.633269 0.000000 0.773932
vn 0.106554 0.024816 0.993997
vn 0.106543 0.029808 0.993861
vn -0.995392 0.023612 0.092934
vn -0.995496 0.018575 0.092967
vn -0.933207 0.359338 0.000001
vn -0.933208 -0.359336 0.000001
vn -0.374164 -0.000971 0.927362
vn -0.371882 -0.000131 0.928280
vn -0.369434 0.000867 0.929257
s 1
g pCube3
usemtl initialShadingGroup
f 7/82/1 1/1/2 3/68/3 8/72/4
s 2
f 5/13/5 4/16/6 2/2/7 6/15/8
f 10/19/9 2/2/7 4/16/6 9/9/10
s 1
f 1/1/2 11/66/11 12/75/12 3/68/3
f 7/82/1 16/84/13 13/86/14 1/3/2
s 2
f 15/25/15 6/15/8 2/4/7 14/22/16
f 10/19/9 17/26/17 14/22/16 2/4/7
s 1
f 1/3/2 13/86/14 18/79/18 11/66/11
s 2
f 21/11/19 20/29/20 23/32/21 22/12/22
s 4
f 20/30/23 19/127/24 24/118/25 23/31/26
s 2
f 27/10/27 26/33/28 29/36/29 28/17/30
s 5
f 26/34/31 25/130/32 30/116/33 29/35/34
s 2
f 42/8/35 41/45/36 44/49/37 43/6/38
s 7
f 41/46/39 40/122/40 45/138/41 44/50/42
s 8
f 63/132/43 62/61/44 65/64/45 64/139/46
s 2
f 62/62/47 61/5/48 66/18/49 65/63/50
f 42/8/35 43/6/38 10/19/9 9/9/10
f 39/7/51 42/8/35 9/9/10 28/17/30
f 22/12/22 27/10/27 4/16/6 5/13/5
f 36/14/52 21/11/19 22/12/22 5/13/5
f 33/24/53 36/14/52 5/13/5 6/15/8
f 9/9/10 4/16/6 27/10/27 28/17/30
f 66/18/49 17/26/17 10/19/9 43/6/38
f 61/5/48 55/20/54 17/26/17 66/18/49
f 49/21/55 15/25/15 14/22/16 52/27/56
f 60/23/57 15/25/15 49/21/55 46/28/58
f 33/24/53 6/15/8 15/25/15 60/23/57
f 17/26/17 55/20/54 52/27/56 14/22/16
s 4
f 19/127/24 20/30/23 35/42/59 34/126/60
s 2
f 20/29/20 21/11/19 36/14/52 35/41/61
f 22/12/22 23/32/21 26/33/28 27/10/27
s 1
f 23/31/62 24/118/63 25/130/64 26/34/65
s 2
f 31/120/66 32/40/67 59/60/68 58/136/69
f 32/39/67 33/24/53 60/23/57 59/59/68
f 33/24/53 32/38/67 35/41/61 36/14/52
f 32/37/67 31/120/66 34/126/70 35/42/61
f 28/17/30 29/36/29 38/44/71 39/7/51
s 12
f 29/35/72 30/116/73 37/123/74 38/43/75
s 2
f 39/7/51 38/44/71 41/45/36 42/8/35
s 12
f 38/43/75 37/123/74 40/122/76 41/46/77
s 13
f 48/142/78 47/51/79 50/54/80 51/143/81
s 2
f 47/52/82 46/28/58 49/21/55 50/53/83
s 1
f 51/143/84 50/54/85 53/56/86 54/134/87
s 2
f 50/53/83 49/21/55 52/27/56 53/55/88
s 15
f 54/134/89 53/56/90 56/58/91 57/146/92
s 2
f 53/55/88 52/27/56 55/20/54 56/57/93
f 46/28/58 47/52/82 59/59/68 60/23/57
s 13
f 47/51/79 48/142/78 58/136/94 59/60/95
s 8
f 57/146/96 56/58/97 62/61/44 63/132/43
s 2
f 56/57/93 55/20/54 61/5/48 62/62/47
f 43/6/38 44/48/37 65/63/50 66/18/49
s 16
f 44/47/98 45/138/99 64/139/100 65/64/101
s 12
f 84/147/102 83/95/103 86/97/104 85/156/105
s 1
f 83/95/106 82/65/107 87/67/108 86/96/109
f 105/77/110 104/110/111 107/111/112 106/85/113
s 15
f 104/110/114 103/177/115 108/163/116 107/111/117
s 1
f 11/66/11 93/76/118 87/67/108 12/75/12
f 8/72/4 3/68/3 76/74/119 70/69/120
f 87/67/108 82/65/107 79/70/121 12/75/12
f 73/73/122 88/71/123 7/82/1 8/72/4
f 67/87/124 73/73/122 8/72/4 70/69/120
f 79/70/121 76/74/119 3/68/3 12/75/12
f 11/66/11 18/79/18 114/78/125 93/76/118
f 16/84/13 97/83/126 105/77/110 13/86/14
f 114/78/125 18/79/18 106/85/113 111/80/127
f 100/81/128 16/84/13 7/82/1 88/71/123
f 94/88/129 97/83/126 16/84/13 100/81/128
f 106/85/113 18/79/18 13/86/14 105/77/110
f 67/87/124 68/89/130 74/92/131 73/73/122
s 4
f 68/89/132 69/157/133 75/151/134 74/91/135
f 69/157/133 68/89/132 71/90/136 72/160/137
s 1
f 68/89/130 67/87/124 70/69/120 71/90/138
f 73/73/122 74/92/131 89/100/139 88/71/123
f 74/91/131 75/151/140 90/167/141 89/101/139
f 72/160/142 71/90/138 77/93/143 78/149/144
f 71/90/138 70/69/120 76/74/119 77/93/143
s 5
f 78/149/145 77/93/146 80/94/147 81/161/148
s 1
f 77/93/143 76/74/119 79/70/121 80/94/149
s 12
f 81/161/150 80/94/151 83/95/103 84/147/102
s 1
f 80/94/149 79/70/121 82/65/107 83/95/106
s 7
f 85/156/152 86/97/153 92/104/154 91/153/155
s 1
f 86/96/109 87/67/108 93/76/118 92/105/156
f 88/71/123 89/99/139 101/109/157 100/81/128
f 89/98/139 90/167/141 102/173/158 101/108/157
s 16
f 91/153/159 92/103/160 113/114/161 112/169/162
s 1
f 92/102/156 93/76/118 114/78/125 113/113/163
f 94/88/129 95/106/164 98/107/165 97/83/126
s 13
f 95/106/166 96/176/167 99/165/168 98/107/169
f 96/176/167 95/106/166 101/108/170 102/173/171
s 1
f 95/106/164 94/88/129 100/81/128 101/109/157
f 97/83/126 98/107/165 104/110/111 105/77/110
f 98/107/165 99/165/172 103/177/173 104/110/111
f 106/85/113 107/111/112 110/112/174 111/80/127
s 8
f 107/111/175 108/163/176 109/172/177 110/112/178
s 1
f 111/80/127 110/112/174 113/113/163 114/78/125
s 8
f 110/112/178 109/172/177 112/169/179 113/114/180
s 12
f 124/129/181 133/115/182 37/123/74 30/116/73
s 1
f 118/128/183 121/117/184 25/130/64 24/118/63
s 2
f 127/135/185 130/119/186 34/126/70 31/120/66
s 7
f 139/121/187 45/138/41 40/122/40 136/124/188
s 12
f 40/122/76 37/123/74 133/115/182 136/124/189
s 4
f 130/119/190 115/125/191 19/127/24 34/126/60
f 19/127/24 115/125/191 118/128/192 24/118/25
s 5
f 121/117/193 124/129/194 30/116/33 25/130/32
s 8
f 151/131/195 57/146/96 63/132/43 157/140/196
s 1
f 145/133/197 51/143/84 54/134/87 148/145/198
s 2
f 127/135/185 31/120/66 58/136/69 154/141/199
s 16
f 139/121/200 160/137/201 64/139/100 45/138/99
s 8
f 64/139/46 160/137/202 157/140/196 63/132/43
s 13
f 154/141/203 58/136/94 48/142/78 142/144/204
f 48/142/78 51/143/81 145/133/205 142/144/204
s 15
f 148/145/206 54/134/89 57/146/92 151/131/207
s 12
f 81/161/150 84/147/102 135/155/208 126/148/209
s 1
f 72/160/142 78/149/144 123/162/210 120/150/211
f 90/167/141 75/151/140 132/158/212 129/152/213
s 7
f 91/153/155 141/170/214 138/154/215 85/156/152
s 12
f 138/154/216 135/155/208 84/147/102 85/156/105
s 4
f 75/151/134 69/157/133 117/159/217 132/158/218
f 117/159/217 69/157/133 72/160/137 120/150/219
s 5
f 78/149/145 81/161/148 126/148/220 123/162/221
s 8
f 108/163/176 153/178/222 159/164/223 109/172/177
s 1
f 99/165/172 147/175/224 150/166/225 103/177/173
f 90/167/141 129/152/213 156/168/226 102/173/158
s 16
f 91/153/159 112/169/162 162/171/227 141/170/228
s 8
f 162/171/229 112/169/179 109/172/177 159/164/223
s 13
f 102/173/171 156/168/230 144/174/231 96/176/167
f 144/174/231 147/175/232 99/165/168 96/176/167
s 15
f 103/177/115 150/166/233 153/178/234 108/163/116
s 4
f 115/125/191 116/179/235 119/180/236 118/128/192
f 116/179/235 117/159/217 120/150/219 119/180/236
s 1
f 118/128/183 119/180/237 122/181/238 121/117/184
f 119/180/237 120/150/211 123/162/210 122/181/238
s 5
f 121/117/193 122/181/239 125/182/240 124/129/194
f 122/181/239 123/162/221 126/148/220 125/182/240
s 12
f 124/129/181 125/182/241 134/185/242 133/115/182
f 125/182/241 126/148/209 135/155/208 134/185/242
s 2
f 127/135/185 128/183/243 131/184/244 130/119/186
s 1
f 128/183/245 129/152/213 132/158/212 131/184/246
s 4
f 117/159/217 116/179/235 131/184/247 132/158/218
f 116/179/235 115/125/191 130/119/190 131/184/247
s 12
f 133/115/182 134/185/242 137/186/248 136/124/189
f 134/185/242 135/155/208 138/154/216 137/186/248
s 7
f 136/124/188 137/186/249 140/187/250 139/121/187
f 137/186/249 138/154/215 141/170/214 140/187/250
s 16
f 139/121/200 140/187/251 161/194/252 160/137/201
f 140/187/251 141/170/228 162/171/227 161/194/252
s 13
f 142/144/204 143/188/253 155/192/254 154/141/203
f 143/188/253 144/174/231 156/168/230 155/192/254
f 144/174/231 143/188/253 146/189/255 147/175/232
f 143/188/253 142/144/204 145/133/205 146/189/255
s 1
f 147/175/224 146/189/256 149/190/257 150/166/225
f 146/189/256 145/133/197 148/145/198 149/190/257
s 15
f 150/166/233 149/190/258 152/191/259 153/178/234
f 149/190/258 148/145/206 151/131/207 152/191/259
s 1
f 129/152/213 128/183/245 155/192/260 156/168/226
s 2
f 128/183/243 127/135/185 154/141/199 155/192/261
s 8
f 153/178/222 152/191/262 158/193/263 159/164/223
f 152/191/262 151/131/195 157/140/196 158/193/263
f 159/164/223 158/193/263 161/194/264 162/171/229
f 158/193/263 157/140/196 160/137/202 161/194/264
