# This file uses centimeters as units for non-parametric coordinates.

mtllib sphere.mtl
g default
v 0.218626 -0.970942 -0.097338
v 0.160133 -0.970942 -0.177846
v 0.073953 -0.970942 -0.227603
v -0.025015 -0.970942 -0.238005
v -0.119658 -0.970942 -0.207253
v -0.193610 -0.970942 -0.140666
v -0.234086 -0.970942 -0.049757
v -0.234086 -0.970942 0.049757
v -0.193610 -0.970942 0.140666
v -0.119658 -0.970942 0.207253
v -0.025015 -0.970942 0.238005
v 0.073953 -0.970942 0.227603
v 0.160133 -0.970942 0.177846
v 0.218626 -0.970942 0.097338
v 0.239316 -0.970942 0.000000
v 0.424546 -0.885456 -0.189020
v 0.310961 -0.885456 -0.345356
v 0.143607 -0.885456 -0.441978
v -0.048577 -0.885456 -0.462177
v -0.232361 -0.885456 -0.402462
v -0.375969 -0.885456 -0.273157
v -0.454568 -0.885456 -0.096621
v -0.454568 -0.885456 0.096621
v -0.375969 -0.885456 0.273157
v -0.232362 -0.885456 0.402462
v -0.048577 -0.885456 0.462177
v 0.143607 -0.885456 0.441978
v 0.310961 -0.885456 0.345357
v 0.424546 -0.885456 0.189020
v 0.464723 -0.885456 0.000000
v 0.605793 -0.748511 -0.269716
v 0.443716 -0.748511 -0.492796
v 0.204916 -0.748511 -0.630667
v -0.069315 -0.748511 -0.659490
v -0.331561 -0.748511 -0.574281
v -0.536477 -0.748511 -0.389774
v -0.648632 -0.748511 -0.137871
v -0.648632 -0.748511 0.137871
v -0.536478 -0.748511 0.389774
v -0.331561 -0.748511 0.574281
v -0.069315 -0.748511 0.659490
v 0.204916 -0.748511 0.630667
v 0.443716 -0.748511 0.492796
v 0.605793 -0.748511 0.269716
v 0.663123 -0.748511 0.000000
v 0.751833 -0.568065 -0.334737
v 0.550684 -0.568065 -0.611596
v 0.254316 -0.568065 -0.782704
v -0.086025 -0.568065 -0.818475
v -0.411492 -0.568065 -0.712725
v -0.665808 -0.568065 -0.483738
v -0.805000 -0.568065 -0.171108
v -0.805000 -0.568065 0.171108
v -0.665808 -0.568065 0.483738
v -0.411492 -0.568065 0.712725
v -0.086025 -0.568065 0.818475
v 0.254316 -0.568065 0.782704
v 0.550684 -0.568065 0.611596
v 0.751833 -0.568065 0.334738
v 0.822984 -0.568065 0.000000
v 0.854180 -0.354605 -0.380305
v 0.625648 -0.354605 -0.694852
v 0.288936 -0.354605 -0.889253
v -0.097736 -0.354605 -0.929894
v -0.467508 -0.354605 -0.809748
v -0.756444 -0.354605 -0.549589
v -0.914584 -0.354605 -0.194401
v -0.914584 -0.354605 0.194401
v -0.756444 -0.354605 0.549589
v -0.467508 -0.354605 0.809748
v -0.097736 -0.354605 0.929894
v 0.288936 -0.354605 0.889253
v 0.625648 -0.354605 0.694852
v 0.854180 -0.354605 0.380305
v 0.935016 -0.354605 0.000000
v 0.906885 -0.120537 -0.403771
v 0.664252 -0.120537 -0.737726
v 0.306764 -0.120537 -0.944122
v -0.103766 -0.120537 -0.987271
v -0.496354 -0.120537 -0.859711
v -0.803118 -0.120537 -0.583500
v -0.971016 -0.120537 -0.206396
v -0.971016 -0.120537 0.206396
v -0.803118 -0.120537 0.583499
v -0.496354 -0.120537 0.859711
v -0.103766 -0.120537 0.987271
v 0.306764 -0.120537 0.944122
v 0.664252 -0.120537 0.737726
v 0.906885 -0.120537 0.403771
v 0.992709 -0.120537 0.000000
v 0.906885 0.120537 -0.403771
v 0.664252 0.120537 -0.737726
v 0.306764 0.120537 -0.944122
v -0.103766 0.120537 -0.987271
v -0.496354 0.120537 -0.859711
v -0.803118 0.120537 -0.583500
v -0.971016 0.120537 -0.206396
v -0.971016 0.120537 0.206396
v -0.803118 0.120537 0.583499
v -0.496354 0.120537 0.859711
v -0.103766 0.120537 0.987271
v 0.306764 0.120537 0.944122
v 0.664252 0.120537 0.737726
v 0.906885 0.120537 0.403771
v 0.992709 0.120537 0.000000
v 0.854180 0.354605 -0.380305
v 0.625648 0.354605 -0.694852
v 0.288936 0.354605 -0.889253
v -0.097736 0.354605 -0.929894
v -0.467508 0.354605 -0.809748
v -0.756444 0.354605 -0.549589
v -0.914584 0.354605 -0.194401
v -0.914584 0.354605 0.194401
v -0.756444 0.354605 0.549589
v -0.467508 0.354605 0.809748
v -0.097736 0.354605 0.929894
v 0.288936 0.354605 0.889253
v 0.625648 0.354605 0.694852
v 0.854180 0.354605 0.380305
v 0.935016 0.354605 0.000000
v 0.751833 0.568065 -0.334737
v 0.550684 0.568065 -0.611596
v 0.254316 0.568065 -0.782704
v -0.086025 0.568065 -0.818475
v -0.411492 0.568065 -0.712725
v -0.665808 0.568065 -0.483738
v -0.805000 0.568065 -0.171108
v -0.805000 0.568065 0.171108
v -0.665808 0.568065 0.483738
v -0.411492 0.568065 0.712725
v -0.086025 0.568065 0.818475
v 0.254316 0.568065 0.782704
v 0.550684 0.568065 0.611596
v 0.751833 0.568065 0.334738
v 0.822984 0.568065 0.000000
v 0.605793 0.748511 -0.269716
v 0.443716 0.748511 -0.492796
v 0.204916 0.748511 -0.630667
v -0.069315 0.748511 -0.659490
v -0.331561 0.748511 -0.574281
v -0.536477 0.748511 -0.389774
v -0.648632 0.748511 -0.137871
v -0.648632 0.748511 0.137871
v -0.536478 0.748511 0.389774
v -0.331561 0.748511 0.574281
v -0.069315 0.748511 0.659490
v 0.204916 0.748511 0.630667
v 0.443716 0.748511 0.492796
v 0.605793 0.748511 0.269716
v 0.663123 0.748511 0.000000
v 0.424546 0.885456 -0.189020
v 0.310961 0.885456 -0.345356
v 0.143607 0.885456 -0.441978
v -0.048577 0.885456 -0.462177
v -0.232361 0.885456 -0.402462
v -0.375969 0.885456 -0.273157
v -0.454568 0.885456 -0.096621
v -0.454568 0.885456 0.096621
v -0.375969 0.885456 0.273157
v -0.232362 0.885456 0.402462
v -0.048577 0.885456 0.462177
v 0.143607 0.885456 0.441978
v 0.310961 0.885456 0.345357
v 0.424546 0.885456 0.189020
v 0.464723 0.885456 0.000000
v 0.218626 0.970942 -0.097338
v 0.160133 0.970942 -0.177846
v 0.073953 0.970942 -0.227603
v -0.025015 0.970942 -0.238005
v -0.119658 0.970942 -0.207253
v -0.193610 0.970942 -0.140666
v -0.234086 0.970942 -0.049757
v -0.234086 0.970942 0.049757
v -0.193610 0.970942 0.140666
v -0.119658 0.970942 0.207253
v -0.025015 0.970942 0.238005
v 0.073953 0.970942 0.227603
v 0.160133 0.970942 0.177846
v 0.218626 0.970942 0.097338
v 0.239316 0.970942 0.000000
v 0.000000 -1.000000 0.000000
v 0.000000 1.000000 0.000000
vt 0.000000 0.076923
vt 0.066667 0.076923
vt 0.133333 0.076923
vt 0.200000 0.076923
vt 0.266667 0.076923
vt 0.333333 0.076923
vt 0.400000 0.076923
vt 0.466667 0.076923
vt 0.533333 0.076923
vt 0.600000 0.076923
vt 0.666667 0.076923
vt 0.733333 0.076923
vt 0.800000 0.076923
vt 0.866667 0.076923
vt 0.933333 0.076923
vt 1.000000 0.076923
vt 0.000000 0.153846
vt 0.066667 0.153846
vt 0.133333 0.153846
vt 0.200000 0.153846
vt 0.266667 0.153846
vt 0.333333 0.153846
vt 0.400000 0.153846
vt 0.466667 0.153846
vt 0.533333 0.153846
vt 0.600000 0.153846
vt 0.666667 0.153846
vt 0.733333 0.153846
vt 0.800000 0.153846
vt 0.866667 0.153846
vt 0.933333 0.153846
vt 1.000000 0.153846
vt 0.000000 0.230769
vt 0.066667 0.230769
vt 0.133333 0.230769
vt 0.200000 0.230769
vt 0.266667 0.230769
vt 0.333333 0.230769
vt 0.400000 0.230769
vt 0.466667 0.230769
vt 0.533333 0.230769
vt 0.600000 0.230769
vt 0.666667 0.230769
vt 0.733333 0.230769
vt 0.800000 0.230769
vt 0.866667 0.230769
vt 0.933333 0.230769
vt 1.000000 0.230769
vt 0.000000 0.307692
vt 0.066667 0.307692
vt 0.133333 0.307692
vt 0.200000 0.307692
vt 0.266667 0.307692
vt 0.333333 0.307692
vt 0.400000 0.307692
vt 0.466667 0.307692
vt 0.533333 0.307692
vt 0.600000 0.307692
vt 0.666667 0.307692
vt 0.733333 0.307692
vt 0.800000 0.307692
vt 0.866667 0.307692
vt 0.933333 0.307692
vt 1.000000 0.307692
vt 0.000000 0.384615
vt 0.066667 0.384615
vt 0.133333 0.384615
vt 0.200000 0.384615
vt 0.266667 0.384615
vt 0.333333 0.384615
vt 0.400000 0.384615
vt 0.466667 0.384615
vt 0.533333 0.384615
vt 0.600000 0.384615
vt 0.666667 0.384615
vt 0.733333 0.384615
vt 0.800000 0.384615
vt 0.866667 0.384615
vt 0.933333 0.384615
vt 1.000000 0.384615
vt 0.000000 0.461538
vt 0.066667 0.461538
vt 0.133333 0.461538
vt 0.200000 0.461538
vt 0.266667 0.461538
vt 0.333333 0.461538
vt 0.400000 0.461538
vt 0.466667 0.461538
vt 0.533333 0.461538
vt 0.600000 0.461538
vt 0.666667 0.461538
vt 0.733333 0.461538
vt 0.800000 0.461538
vt 0.866667 0.461538
vt 0.933333 0.461538
vt 1.000000 0.461538
vt 0.000000 0.538462
vt 0.066667 0.538462
vt 0.133333 0.538462
vt 0.200000 0.538462
vt 0.266667 0.538462
vt 0.333333 0.538462
vt 0.400000 0.538462
vt 0.466667 0.538462
vt 0.533333 0.538462
vt 0.600000 0.538462
vt 0.666667 0.538462
vt 0.733333 0.538462
vt 0.800000 0.538462
vt 0.866667 0.538462
vt 0.933333 0.538462
vt 1.000000 0.538462
vt 0.000000 0.615385
vt 0.066667 0.615385
vt 0.133333 0.615385
vt 0.200000 0.615385
vt 0.266667 0.615385
vt 0.333333 0.615385
vt 0.400000 0.615385
vt 0.466667 0.615385
vt 0.533333 0.615385
vt 0.600000 0.615385
vt 0.666667 0.615385
vt 0.733333 0.615385
vt 0.800000 0.615385
vt 0.866667 0.615385
vt 0.933333 0.615385
vt 1.000000 0.615385
vt 0.000000 0.692308
vt 0.066667 0.692308
vt 0.133333 0.692308
vt 0.200000 0.692308
vt 0.266667 0.692308
vt 0.333333 0.692308
vt 0.400000 0.692308
vt 0.466667 0.692308
vt 0.533333 0.692308
vt 0.600000 0.692308
vt 0.666667 0.692308
vt 0.733333 0.692308
vt 0.800000 0.692308
vt 0.866667 0.692308
vt 0.933333 0.692308
vt 1.000000 0.692308
vt 0.000000 0.769231
vt 0.066667 0.769231
vt 0.133333 0.769231
vt 0.200000 0.769231
vt 0.266667 0.769231
vt 0.333333 0.769231
vt 0.400000 0.769231
vt 0.466667 0.769231
vt 0.533333 0.769231
vt 0.600000 0.769231
vt 0.666667 0.769231
vt 0.733333 0.769231
vt 0.800000 0.769231
vt 0.866667 0.769231
vt 0.933333 0.769231
vt 1.000000 0.769231
vt 0.000000 0.846154
vt 0.066667 0.846154
vt 0.133333 0.846154
vt 0.200000 0.846154
vt 0.266667 0.846154
vt 0.333333 0.846154
vt 0.400000 0.846154
vt 0.466667 0.846154
vt 0.533333 0.846154
vt 0.600000 0.846154
vt 0.666667 0.846154
vt 0.733333 0.846154
vt 0.800000 0.846154
vt 0.866667 0.846154
vt 0.933333 0.846154
vt 1.000000 0.846154
vt 0.000000 0.923077
vt 0.066667 0.923077
vt 0.133333 0.923077
vt 0.200000 0.923077
vt 0.266667 0.923077
vt 0.333333 0.923077
vt 0.400000 0.923077
vt 0.466667 0.923077
vt 0.533333 0.923077
vt 0.600000 0.923077
vt 0.666667 0.923077
vt 0.733333 0.923077
vt 0.800000 0.923077
vt 0.866667 0.923077
vt 0.933333 0.923077
vt 1.000000 0.923077
vt 0.033333 0.000000
vt 0.100000 0.000000
vt 0.166667 0.000000
vt 0.233333 0.000000
vt 0.300000 0.000000
vt 0.366667 0.000000
vt 0.433333 0.000000
vt 0.500000 0.000000
vt 0.566667 0.000000
vt 0.633333 0.000000
vt 0.700000 0.000000
vt 0.766667 0.000000
vt 0.833333 0.000000
vt 0.900000 0.000000
vt 0.966667 0.000000
vt 0.033333 1.000000
vt 0.100000 1.000000
vt 0.166667 1.000000
vt 0.233333 1.000000
vt 0.300000 1.000000
vt 0.366667 1.000000
vt 0.433333 1.000000
vt 0.500000 1.000000
vt 0.566667 1.000000
vt 0.633333 1.000000
vt 0.700000 1.000000
vt 0.766667 1.000000
vt 0.833333 1.000000
vt 0.900000 1.000000
vt 0.966667 1.000000
vn 0.280866 -0.951566 -0.125049
vn 0.205722 -0.951566 -0.228477
vn 0.335133 -0.865535 -0.372203
vn 0.457548 -0.865535 -0.203714
vn 0.095006 -0.951566 -0.292398
vn 0.154771 -0.865535 -0.476336
vn -0.032137 -0.951566 -0.305762
vn -0.052353 -0.865535 -0.498105
vn -0.153723 -0.951566 -0.266256
vn -0.250424 -0.865535 -0.433748
vn -0.248729 -0.951566 -0.180712
vn -0.405195 -0.865535 -0.294392
vn -0.300727 -0.951566 -0.063922
vn -0.489904 -0.865535 -0.104132
vn -0.300727 -0.951566 0.063922
vn -0.489904 -0.865535 0.104132
vn -0.248729 -0.951566 0.180712
vn -0.405195 -0.865535 0.294392
vn -0.153723 -0.951566 0.266256
vn -0.250425 -0.865535 0.433748
vn -0.032137 -0.951566 0.305762
vn -0.052353 -0.865535 0.498105
vn 0.095006 -0.951566 0.292398
vn 0.154771 -0.865535 0.476336
vn 0.205721 -0.951566 0.228477
vn 0.335133 -0.865535 0.372203
vn 0.280866 -0.951566 0.125049
vn 0.457548 -0.865535 0.203714
vn 0.307446 -0.951566 -0.000000
vn 0.500849 -0.865535 -0.000000
vn 0.457743 -0.729401 -0.508375
vn 0.624944 -0.729401 -0.278243
vn 0.211395 -0.729401 -0.650605
vn -0.071506 -0.729401 -0.680339
vn -0.342043 -0.729401 -0.592436
vn -0.553438 -0.729401 -0.402096
vn -0.669138 -0.729401 -0.142230
vn -0.669138 -0.729401 0.142230
vn -0.553438 -0.729401 0.402096
vn -0.342043 -0.729401 0.592436
vn -0.071507 -0.729401 0.680339
vn 0.211394 -0.729401 0.650605
vn 0.457743 -0.729401 0.508375
vn 0.624944 -0.729401 0.278243
vn 0.684087 -0.729401 -0.000000
vn 0.557902 -0.552110 -0.619613
vn 0.761688 -0.552110 -0.339125
vn 0.257650 -0.552110 -0.792964
vn -0.087153 -0.552110 -0.829204
vn -0.416886 -0.552110 -0.722067
vn -0.674535 -0.552110 -0.490079
vn -0.815551 -0.552110 -0.173351
vn -0.815551 -0.552110 0.173351
vn -0.674535 -0.552110 0.490078
vn -0.416886 -0.552110 0.722067
vn -0.087153 -0.552110 0.829204
vn 0.257649 -0.552110 0.792964
vn 0.557902 -0.552110 0.619613
vn 0.761688 -0.552110 0.339125
vn 0.833771 -0.552110 -0.000000
vn 0.628293 -0.344001 -0.697790
vn 0.857791 -0.344001 -0.381913
vn 0.290158 -0.344001 -0.893013
vn -0.098149 -0.344001 -0.933825
vn -0.469484 -0.344001 -0.813171
vn -0.759642 -0.344001 -0.551912
vn -0.918450 -0.344001 -0.195223
vn -0.918450 -0.344001 0.195223
vn -0.759642 -0.344001 0.551912
vn -0.469485 -0.344001 0.813171
vn -0.098149 -0.344001 0.933825
vn 0.290157 -0.344002 0.893013
vn 0.628293 -0.344002 0.697790
vn 0.857791 -0.344002 0.381913
vn 0.938969 -0.344001 -0.000000
vn 0.664549 -0.116819 -0.738057
vn 0.907291 -0.116819 -0.403952
vn 0.306901 -0.116819 -0.944545
vn -0.103813 -0.116819 -0.987713
vn -0.496577 -0.116819 -0.860096
vn -0.803478 -0.116819 -0.583761
vn -0.971450 -0.116819 -0.206488
vn -0.971451 -0.116819 0.206488
vn -0.803478 -0.116819 0.583761
vn -0.496577 -0.116819 0.860096
vn -0.103813 -0.116819 0.987713
vn 0.306901 -0.116819 0.944545
vn 0.664549 -0.116819 0.738057
vn 0.907291 -0.116819 0.403952
vn 0.993153 -0.116819 -0.000000
vn 0.664549 0.116819 -0.738057
vn 0.907291 0.116819 -0.403952
vn 0.306901 0.116819 -0.944545
vn -0.103813 0.116819 -0.987713
vn -0.496577 0.116819 -0.860096
vn -0.803478 0.116819 -0.583761
vn -0.971450 0.116819 -0.206488
vn -0.971451 0.116819 0.206488
vn -0.803478 0.116819 0.583761
vn -0.496577 0.116819 0.860096
vn -0.103813 0.116819 0.987713
vn 0.306901 0.116819 0.944545
vn 0.664549 0.116819 0.738057
vn 0.907291 0.116819 0.403952
vn 0.993153 0.116819 -0.000000
vn 0.628293 0.344001 -0.697790
vn 0.857791 0.344001 -0.381913
vn 0.290158 0.344001 -0.893013
vn -0.098149 0.344001 -0.933825
vn -0.469484 0.344001 -0.813171
vn -0.759642 0.344001 -0.551912
vn -0.918450 0.344001 -0.195223
vn -0.918450 0.344001 0.195223
vn -0.759642 0.344001 0.551912
vn -0.469485 0.344001 0.813171
vn -0.098149 0.344001 0.933825
vn 0.290157 0.344001 0.893013
vn 0.628293 0.344001 0.697790
vn 0.857791 0.344002 0.381913
vn 0.938969 0.344001 -0.000000
vn 0.557902 0.552110 -0.619613
vn 0.761688 0.552110 -0.339125
vn 0.257650 0.552110 -0.792964
vn -0.087153 0.552110 -0.829204
vn -0.416885 0.552110 -0.722067
vn -0.674535 0.552110 -0.490079
vn -0.815551 0.552110 -0.173351
vn -0.815551 0.552110 0.173351
vn -0.674535 0.552110 0.490078
vn -0.416886 0.552110 0.722067
vn -0.087153 0.552110 0.829204
vn 0.257649 0.552110 0.792964
vn 0.557902 0.552110 0.619613
vn 0.761688 0.552110 0.339125
vn 0.833771 0.552110 -0.000000
vn 0.457743 0.729401 -0.508375
vn 0.624944 0.729401 -0.278243
vn 0.211395 0.729401 -0.650605
vn -0.071506 0.729401 -0.680339
vn -0.342043 0.729401 -0.592436
vn -0.553438 0.729401 -0.402096
vn -0.669138 0.729401 -0.142230
vn -0.669138 0.729401 0.142230
vn -0.553438 0.729401 0.402096
vn -0.342043 0.729401 0.592436
vn -0.071507 0.729401 0.680339
vn 0.211394 0.729401 0.650605
vn 0.457743 0.729401 0.508375
vn 0.624944 0.729401 0.278243
vn 0.684087 0.729401 -0.000000
vn 0.335133 0.865535 -0.372203
vn 0.457548 0.865535 -0.203714
vn 0.154771 0.865535 -0.476336
vn -0.052353 0.865535 -0.498105
vn -0.250424 0.865535 -0.433748
vn -0.405195 0.865535 -0.294392
vn -0.489904 0.865535 -0.104132
vn -0.489904 0.865535 0.104132
vn -0.405195 0.865535 0.294392
vn -0.250425 0.865535 0.433748
vn -0.052353 0.865535 0.498105
vn 0.154771 0.865535 0.476336
vn 0.335133 0.865535 0.372203
vn 0.457548 0.865535 0.203714
vn 0.500849 0.865535 -0.000000
vn 0.205722 0.951566 -0.228477
vn 0.280866 0.951566 -0.125050
vn 0.095006 0.951566 -0.292398
vn -0.032137 0.951566 -0.305762
vn -0.153723 0.951566 -0.266256
vn -0.248729 0.951566 -0.180712
vn -0.300727 0.951566 -0.063922
vn -0.300727 0.951566 0.063922
vn -0.248729 0.951566 0.180712
vn -0.153723 0.951566 0.266256
vn -0.032137 0.951566 0.305762
vn 0.095006 0.951566 0.292399
vn 0.205721 0.951566 0.228477
vn 0.280866 0.951566 0.125049
vn 0.307446 0.951566 -0.000000
vn -0.000000 -1.000000 0.000000
vn -0.000000 1.000000 0.000000
s 1
g pSphere1
usemtl initialShadingGroup
f 1/1/1 2/2/2 17/18/3 16/17/4
f 2/2/2 3/3/5 18/19/6 17/18/3
f 3/3/5 4/4/7 19/20/8 18/19/6
f 4/4/7 5/5/9 20/21/10 19/20/8
f 5/5/9 6/6/11 21/22/12 20/21/10
f 6/6/11 7/7/13 22/23/14 21/22/12
f 7/7/13 8/8/15 23/24/16 22/23/14
f 8/8/15 9/9/17 24/25/18 23/24/16
f 9/9/17 10/10/19 25/26/20 24/25/18
f 10/10/19 11/11/21 26/27/22 25/26/20
f 11/11/21 12/12/23 27/28/24 26/27/22
f 12/12/23 13/13/25 28/29/26 27/28/24
f 13/13/25 14/14/27 29/30/28 28/29/26
f 14/14/27 15/15/29 30/31/30 29/30/28
f 15/15/29 1/16/1 16/32/4 30/31/30
f 16/17/4 17/18/3 32/34/31 31/33/32
f 17/18/3 18/19/6 33/35/33 32/34/31
f 18/19/6 19/20/8 34/36/34 33/35/33
f 19/20/8 20/21/10 35/37/35 34/36/34
f 20/21/10 21/22/12 36/38/36 35/37/35
f 21/22/12 22/23/14 37/39/37 36/38/36
f 22/23/14 23/24/16 38/40/38 37/39/37
f 23/24/16 24/25/18 39/41/39 38/40/38
f 24/25/18 25/26/20 40/42/40 39/41/39
f 25/26/20 26/27/22 41/43/41 40/42/40
f 26/27/22 27/28/24 42/44/42 41/43/41
f 27/28/24 28/29/26 43/45/43 42/44/42
f 28/29/26 29/30/28 44/46/44 43/45/43
f 29/30/28 30/31/30 45/47/45 44/46/44
f 30/31/30 16/32/4 31/48/32 45/47/45
f 31/33/32 32/34/31 47/50/46 46/49/47
f 32/34/31 33/35/33 48/51/48 47/50/46
f 33/35/33 34/36/34 49/52/49 48/51/48
f 34/36/34 35/37/35 50/53/50 49/52/49
f 35/37/35 36/38/36 51/54/51 50/53/50
f 36/38/36 37/39/37 52/55/52 51/54/51
f 37/39/37 38/40/38 53/56/53 52/55/52
f 38/40/38 39/41/39 54/57/54 53/56/53
f 39/41/39 40/42/40 55/58/55 54/57/54
f 40/42/40 41/43/41 56/59/56 55/58/55
f 41/43/41 42/44/42 57/60/57 56/59/56
f 42/44/42 43/45/43 58/61/58 57/60/57
f 43/45/43 44/46/44 59/62/59 58/61/58
f 44/46/44 45/47/45 60/63/60 59/62/59
f 45/47/45 31/48/32 46/64/47 60/63/60
f 46/49/47 47/50/46 62/66/61 61/65/62
f 47/50/46 48/51/48 63/67/63 62/66/61
f 48/51/48 49/52/49 64/68/64 63/67/63
f 49/52/49 50/53/50 65/69/65 64/68/64
f 50/53/50 51/54/51 66/70/66 65/69/65
f 51/54/51 52/55/52 67/71/67 66/70/66
f 52/55/52 53/56/53 68/72/68 67/71/67
f 53/56/53 54/57/54 69/73/69 68/72/68
f 54/57/54 55/58/55 70/74/70 69/73/69
f 55/58/55 56/59/56 71/75/71 70/74/70
f 56/59/56 57/60/57 72/76/72 71/75/71
f 57/60/57 58/61/58 73/77/73 72/76/72
f 58/61/58 59/62/59 74/78/74 73/77/73
f 59/62/59 60/63/60 75/79/75 74/78/74
f 60/63/60 46/64/47 61/80/62 75/79/75
f 61/65/62 62/66/61 77/82/76 76/81/77
f 62/66/61 63/67/63 78/83/78 77/82/76
f 63/67/63 64/68/64 79/84/79 78/83/78
f 64/68/64 65/69/65 80/85/80 79/84/79
f 65/69/65 66/70/66 81/86/81 80/85/80
f 66/70/66 67/71/67 82/87/82 81/86/81
f 67/71/67 68/72/68 83/88/83 82/87/82
f 68/72/68 69/73/69 84/89/84 83/88/83
f 69/73/69 70/74/70 85/90/85 84/89/84
f 70/74/70 71/75/71 86/91/86 85/90/85
f 71/75/71 72/76/72 87/92/87 86/91/86
f 72/76/72 73/77/73 88/93/88 87/92/87
f 73/77/73 74/78/74 89/94/89 88/93/88
f 74/78/74 75/79/75 90/95/90 89/94/89
f 75/79/75 61/80/62 76/96/77 90/95/90
f 76/81/77 77/82/76 92/98/91 91/97/92
f 77/82/76 78/83/78 93/99/93 92/98/91
f 78/83/78 79/84/79 94/100/94 93/99/93
f 79/84/79 80/85/80 95/101/95 94/100/94
f 80/85/80 81/86/81 96/102/96 95/101/95
f 81/86/81 82/87/82 97/103/97 96/102/96
f 82/87/82 83/88/83 98/104/98 97/103/97
f 83/88/83 84/89/84 99/105/99 98/104/98
f 84/89/84 85/90/85 100/106/100 99/105/99
f 85/90/85 86/91/86 101/107/101 100/106/100
f 86/91/86 87/92/87 102/108/102 101/107/101
f 87/92/87 88/93/88 103/109/103 102/108/102
f 88/93/88 89/94/89 104/110/104 103/109/103
f 89/94/89 90/95/90 105/111/105 104/110/104
f 90/95/90 76/96/77 91/112/92 105/111/105
f 91/97/92 92/98/91 107/114/106 106/113/107
f 92/98/91 93/99/93 108/115/108 107/114/106
f 93/99/93 94/100/94 109/116/109 108/115/108
f 94/100/94 95/101/95 110/117/110 109/116/109
f 95/101/95 96/102/96 111/118/111 110/117/110
f 96/102/96 97/103/97 112/119/112 111/118/111
f 97/103/97 98/104/98 113/120/113 112/119/112
f 98/104/98 99/105/99 114/121/114 113/120/113
f 99/105/99 100/106/100 115/122/115 114/121/114
f 100/106/100 101/107/101 116/123/116 115/122/115
f 101/107/101 102/108/102 117/124/117 116/123/116
f 102/108/102 103/109/103 118/125/118 117/124/117
f 103/109/103 104/110/104 119/126/119 118/125/118
f 104/110/104 105/111/105 120/127/120 119/126/119
f 105/111/105 91/112/92 106/128/107 120/127/120
f 106/113/107 107/114/106 122/130/121 121/129/122
f 107/114/106 108/115/108 123/131/123 122/130/121
f 108/115/108 109/116/109 124/132/124 123/131/123
f 109/116/109 110/117/110 125/133/125 124/132/124
f 110/117/110 111/118/111 126/134/126 125/133/125
f 111/118/111 112/119/112 127/135/127 126/134/126
f 112/119/112 113/120/113 128/136/128 127/135/127
f 113/120/113 114/121/114 129/137/129 128/136/128
f 114/121/114 115/122/115 130/138/130 129/137/129
f 115/122/115 116/123/116 131/139/131 130/138/130
f 116/123/116 117/124/117 132/140/132 131/139/131
f 117/124/117 118/125/118 133/141/133 132/140/132
f 118/125/118 119/126/119 134/142/134 133/141/133
f 119/126/119 120/127/120 135/143/135 134/142/134
f 120/127/120 106/128/107 121/144/122 135/143/135
f 121/129/122 122/130/121 137/146/136 136/145/137
f 122/130/121 123/131/123 138/147/138 137/146/136
f 123/131/123 124/132/124 139/148/139 138/147/138
f 124/132/124 125/133/125 140/149/140 139/148/139
f 125/133/125 126/134/126 141/150/141 140/149/140
f 126/134/126 127/135/127 142/151/142 141/150/141
f 127/135/127 128/136/128 143/152/143 142/151/142
f 128/136/128 129/137/129 144/153/144 143/152/143
f 129/137/129 130/138/130 145/154/145 144/153/144
f 130/138/130 131/139/131 146/155/146 145/154/145
f 131/139/131 132/140/132 147/156/147 146/155/146
f 132/140/132 133/141/133 148/157/148 147/156/147
f 133/141/133 134/142/134 149/158/149 148/157/148
f 134/142/134 135/143/135 150/159/150 149/158/149
f 135/143/135 121/144/122 136/160/137 150/159/150
f 136/145/137 137/146/136 152/162/151 151/161/152
f 137/146/136 138/147/138 153/163/153 152/162/151
f 138/147/138 139/148/139 154/164/154 153/163/153
f 139/148/139 140/149/140 155/165/155 154/164/154
f 140/149/140 141/150/141 156/166/156 155/165/155
f 141/150/141 142/151/142 157/167/157 156/166/156
f 142/151/142 143/152/143 158/168/158 157/167/157
f 143/152/143 144/153/144 159/169/159 158/168/158
f 144/153/144 145/154/145 160/170/160 159/169/159
f 145/154/145 146/155/146 161/171/161 160/170/160
f 146/155/146 147/156/147 162/172/162 161/171/161
f 147/156/147 148/157/148 163/173/163 162/172/162
f 148/157/148 149/158/149 164/174/164 163/173/163
f 149/158/149 150/159/150 165/175/165 164/174/164
f 150/159/150 136/160/137 151/176/152 165/175/165
f 151/161/152 152/162/151 167/178/166 166/177/167
f 152/162/151 153/163/153 168/179/168 167/178/166
f 153/163/153 154/164/154 169/180/169 168/179/168
f 154/164/154 155/165/155 170/181/170 169/180/169
f 155/165/155 156/166/156 171/182/171 170/181/170
f 156/166/156 157/167/157 172/183/172 171/182/171
f 157/167/157 158/168/158 173/184/173 172/183/172
f 158/168/158 159/169/159 174/185/174 173/184/173
f 159/169/159 160/170/160 175/186/175 174/185/174
f 160/170/160 161/171/161 176/187/176 175/186/175
f 161/171/161 162/172/162 177/188/177 176/187/176
f 162/172/162 163/173/163 178/189/178 177/188/177
f 163/173/163 164/174/164 179/190/179 178/189/178
f 164/174/164 165/175/165 180/191/180 179/190/179
f 165/175/165 151/176/152 166/192/167 180/191/180
f 2/2/2 1/1/1 181/193/181
f 3/3/5 2/2/2 181/194/181
f 4/4/7 3/3/5 181/195/181
f 5/5/9 4/4/7 181/196/181
f 6/6/11 5/5/9 181/197/181
f 7/7/13 6/6/11 181/198/181
f 8/8/15 7/7/13 181/199/181
f 9/9/17 8/8/15 181/200/181
f 10/10/19 9/9/17 181/201/181
f 11/11/21 10/10/19 181/202/181
f 12/12/23 11/11/21 181/203/181
f 13/13/25 12/12/23 181/204/181
f 14/14/27 13/13/25 181/205/181
f 15/15/29 14/14/27 181/206/181
f 1/16/1 15/15/29 181/207/181
f 166/177/167 167/178/166 182/208/182
f 167/178/166 168/179/168 182/209/182
f 168/179/168 169/180/169 182/210/182
f 169/180/169 170/181/170 182/211/182
f 170/181/170 171/182/171 182/212/182
f 171/182/171 172/183/172 182/213/182
f 172/183/172 173/184/173 182/214/182
f 173/184/173 174/185/174 182/215/182
f 174/185/174 175/186/175 182/216/182
f 175/186/175 176/187/176 182/217/182
f 176/187/176 177/188/177 182/218/182
f 177/188/177 178/189/178 182/219/182
f 178/189/178 179/190/179 182/220/182
f 179/190/179 180/191/180 182/221/182
f 180/191/180 166/192/167 182/222/182
